<svg xmlns="http://www.w3.org/2000/svg" xmlns:xlink="http://www.w3.org/1999/xlink" width="1080" zoomAndPan="magnify" viewBox="0 0 810 809.999993" height="1080" preserveAspectRatio="xMidYMid meet" version="1.0"><defs><g/><clipPath id="id1"><path d="M 283.5 283.5 L 526.5 283.5 L 526.5 526.5 L 283.5 526.5 Z M 283.5 283.5 " clip-rule="nonzero"/></clipPath><clipPath id="id2"><path d="M 269 598 L 415 598 L 415 687.5625 L 269 687.5625 Z M 269 598 " clip-rule="nonzero"/></clipPath><clipPath id="id3"><path d="M 388 314 L 776 314 L 776 687.5625 L 388 687.5625 Z M 388 314 " clip-rule="nonzero"/></clipPath><clipPath id="id4"><path d="M 237 561 L 443 561 L 443 687.5625 L 237 687.5625 Z M 237 561 " clip-rule="nonzero"/></clipPath><clipPath id="id5"><path d="M 249 626 L 288 626 L 288 687.5625 L 249 687.5625 Z M 249 626 " clip-rule="nonzero"/></clipPath><clipPath id="id6"><path d="M 711 314 L 778 314 L 778 687.5625 L 711 687.5625 Z M 711 314 " clip-rule="nonzero"/></clipPath><clipPath id="id7"><path d="M 268 602 L 652 602 L 652 687.5625 L 268 687.5625 Z M 268 602 " clip-rule="nonzero"/></clipPath><clipPath id="id8"><path d="M 598 561 L 759 561 L 759 687.5625 L 598 687.5625 Z M 598 561 " clip-rule="nonzero"/></clipPath><clipPath id="id9"><path d="M 608 649 L 658 649 L 658 687.5625 L 608 687.5625 Z M 608 649 " clip-rule="nonzero"/></clipPath></defs><g clip-path="url(#id1)"><path fill="#919191" d="M 283.5 283.5 L 526.5 283.5 L 526.5 526.5 L 283.5 526.5 L 283.5 283.5 " fill-opacity="1" fill-rule="nonzero"/></g><g fill="#000000" fill-opacity="1"><g transform="translate(390.433578, 412.499999)"><g><path d="M 5.375 -10.28125 C 6.101562 -10.28125 6.734375 -10.144531 7.265625 -9.875 C 7.804688 -9.613281 8.285156 -9.160156 8.703125 -8.515625 L 8.765625 -8.515625 C 8.722656 -9.296875 8.703125 -10.0625 8.703125 -10.8125 L 8.703125 -14.4375 L 9.609375 -14.4375 L 9.609375 0 L 9.015625 0 L 8.78125 -1.546875 L 8.703125 -1.546875 C 7.929688 -0.390625 6.832031 0.1875 5.40625 0.1875 C 4.007812 0.1875 2.941406 -0.242188 2.203125 -1.109375 C 1.472656 -1.972656 1.109375 -3.238281 1.109375 -4.90625 C 1.109375 -6.644531 1.472656 -7.972656 2.203125 -8.890625 C 2.929688 -9.816406 3.988281 -10.28125 5.375 -10.28125 Z M 5.375 -9.4375 C 4.28125 -9.4375 3.453125 -9.050781 2.890625 -8.28125 C 2.335938 -7.507812 2.0625 -6.390625 2.0625 -4.921875 C 2.0625 -2.054688 3.175781 -0.625 5.40625 -0.625 C 6.539062 -0.625 7.375 -0.953125 7.90625 -1.609375 C 8.4375 -2.273438 8.703125 -3.375 8.703125 -4.90625 L 8.703125 -5.0625 C 8.703125 -6.613281 8.441406 -7.726562 7.921875 -8.40625 C 7.398438 -9.09375 6.550781 -9.4375 5.375 -9.4375 Z M 5.375 -9.4375 "/></g></g></g><g fill="#000000" fill-opacity="1"><g transform="translate(401.74034, 412.499999)"><g><path d="M 5.765625 0.1875 C 4.296875 0.1875 3.148438 -0.265625 2.328125 -1.171875 C 1.515625 -2.078125 1.109375 -3.34375 1.109375 -4.96875 C 1.109375 -6.570312 1.503906 -7.859375 2.296875 -8.828125 C 3.085938 -9.796875 4.15625 -10.28125 5.5 -10.28125 C 6.6875 -10.28125 7.617188 -9.863281 8.296875 -9.03125 C 8.984375 -8.207031 9.328125 -7.082031 9.328125 -5.65625 L 9.328125 -4.921875 L 2.0625 -4.921875 C 2.082031 -3.535156 2.40625 -2.476562 3.03125 -1.75 C 3.664062 -1.019531 4.578125 -0.65625 5.765625 -0.65625 C 6.335938 -0.65625 6.84375 -0.691406 7.28125 -0.765625 C 7.71875 -0.847656 8.269531 -1.023438 8.9375 -1.296875 L 8.9375 -0.453125 C 8.363281 -0.203125 7.835938 -0.0351562 7.359375 0.046875 C 6.878906 0.140625 6.347656 0.1875 5.765625 0.1875 Z M 5.5 -9.46875 C 4.519531 -9.46875 3.734375 -9.144531 3.140625 -8.5 C 2.554688 -7.863281 2.21875 -6.941406 2.125 -5.734375 L 8.359375 -5.734375 C 8.359375 -6.898438 8.101562 -7.8125 7.59375 -8.46875 C 7.09375 -9.132812 6.394531 -9.46875 5.5 -9.46875 Z M 5.5 -9.46875 "/></g></g></g><g fill="#000000" fill-opacity="1"><g transform="translate(412.16593, 412.499999)"><g><path d="M 5.65625 -10.28125 C 6.082031 -10.28125 6.539062 -10.238281 7.03125 -10.15625 L 6.859375 -9.265625 C 6.429688 -9.367188 5.992188 -9.421875 5.546875 -9.421875 C 4.691406 -9.421875 3.988281 -9.054688 3.4375 -8.328125 C 2.882812 -7.597656 2.609375 -6.675781 2.609375 -5.5625 L 2.609375 0 L 1.6875 0 L 1.6875 -10.078125 L 2.46875 -10.078125 L 2.5625 -8.265625 L 2.625 -8.265625 C 3.039062 -9.003906 3.484375 -9.523438 3.953125 -9.828125 C 4.421875 -10.128906 4.988281 -10.28125 5.65625 -10.28125 Z M 5.65625 -10.28125 "/></g></g></g><g clip-path="url(#id2)"><path fill="#fcb335" d="M 269.199219 687.597656 L 269.199219 631.25 L 414.980469 598.507812 L 414.980469 687.597656 Z M 269.199219 687.597656 " fill-opacity="1" fill-rule="nonzero"/></g><g clip-path="url(#id3)"><path fill="#fcb335" d="M 488.648438 314.222656 L 731.558594 314.222656 C 748.667969 314.222656 762.769531 327.640625 763.621094 344.742188 C 768.054688 433.882812 775.09375 687.597656 775.679688 687.597656 C 776.390625 687.597656 388.660156 687.597656 388.660156 687.597656 L 454.847656 342.179688 C 457.953125 325.957031 472.140625 314.222656 488.648438 314.222656 Z M 488.648438 314.222656 " fill-opacity="1" fill-rule="nonzero"/></g><g clip-path="url(#id4)"><path fill="#fcb335" d="M 442.011719 616.613281 L 296.902344 687.597656 L 237.148438 687.597656 L 237.148438 647.164062 C 237.148438 630.621094 247.0625 615.691406 262.300781 609.277344 L 356.28125 569.730469 C 369.203125 564.292969 383.078125 561.492188 397.09375 561.492188 L 419.605469 561.492188 C 431.980469 561.492188 442.011719 571.53125 442.011719 583.914062 L 442.011719 616.613281 " fill-opacity="1" fill-rule="nonzero"/></g><path stroke-linecap="round" transform="matrix(1.513834, 0, 0, 1.514887, 27.659955, 118.569748)" fill="none" stroke-linejoin="round" d="M 138.382741 348.933091 C 138.382741 338.012828 144.931718 328.157516 154.997737 323.923496 L 217.078835 297.818006 C 225.614695 294.228631 234.780166 292.379793 244.03853 292.379793 L 258.909196 292.379793 C 267.083805 292.379793 273.710193 299.006729 273.710193 307.180811 L 273.710193 328.766059 " stroke="#622542" stroke-width="1" stroke-opacity="1" stroke-miterlimit="4"/><g clip-path="url(#id5)"><path fill="#fb5e00" d="M 268.316406 626.980469 L 268.402344 626.980469 C 269.027344 626.980469 269.648438 627.011719 270.273438 627.070312 C 270.894531 627.132812 271.511719 627.222656 272.125 627.347656 C 272.734375 627.46875 273.339844 627.621094 273.9375 627.800781 C 274.535156 627.984375 275.125 628.191406 275.703125 628.433594 C 276.277344 628.671875 276.84375 628.9375 277.394531 629.234375 C 277.945312 629.527344 278.480469 629.847656 279 630.195312 C 279.519531 630.542969 280.019531 630.914062 280.503906 631.3125 C 280.984375 631.707031 281.449219 632.128906 281.890625 632.570312 C 282.332031 633.011719 282.75 633.476562 283.148438 633.957031 C 283.542969 634.441406 283.914062 634.941406 284.261719 635.460938 C 284.609375 635.980469 284.929688 636.519531 285.222656 637.070312 C 285.519531 637.621094 285.785156 638.183594 286.023438 638.761719 C 286.261719 639.339844 286.472656 639.929688 286.65625 640.527344 C 286.835938 641.125 286.988281 641.730469 287.109375 642.34375 C 287.230469 642.957031 287.324219 643.574219 287.382812 644.195312 C 287.445312 644.820312 287.476562 645.441406 287.476562 646.066406 L 287.476562 668.507812 C 287.476562 669.132812 287.445312 669.757812 287.382812 670.378906 C 287.324219 671 287.230469 671.621094 287.109375 672.234375 C 286.988281 672.84375 286.835938 673.453125 286.65625 674.050781 C 286.472656 674.648438 286.261719 675.234375 286.023438 675.8125 C 285.785156 676.390625 285.519531 676.957031 285.222656 677.507812 C 284.929688 678.058594 284.609375 678.59375 284.261719 679.113281 C 283.914062 679.632812 283.542969 680.132812 283.148438 680.617188 C 282.75 681.101562 282.332031 681.5625 281.890625 682.003906 C 281.449219 682.449219 280.984375 682.867188 280.503906 683.261719 C 280.019531 683.660156 279.519531 684.03125 279 684.378906 C 278.480469 684.726562 277.945312 685.046875 277.394531 685.34375 C 276.84375 685.636719 276.277344 685.902344 275.703125 686.144531 C 275.125 686.382812 274.535156 686.59375 273.9375 686.773438 C 273.339844 686.957031 272.734375 687.109375 272.125 687.230469 C 271.511719 687.351562 270.894531 687.441406 270.273438 687.503906 C 269.648438 687.566406 269.027344 687.597656 268.402344 687.597656 L 268.316406 687.597656 C 267.691406 687.597656 267.070312 687.566406 266.449219 687.503906 C 265.824219 687.441406 265.207031 687.351562 264.597656 687.230469 C 263.984375 687.109375 263.378906 686.957031 262.78125 686.773438 C 262.183594 686.59375 261.59375 686.382812 261.019531 686.144531 C 260.441406 685.902344 259.875 685.636719 259.324219 685.34375 C 258.773438 685.046875 258.238281 684.726562 257.71875 684.378906 C 257.199219 684.03125 256.699219 683.660156 256.214844 683.261719 C 255.734375 682.867188 255.269531 682.449219 254.828125 682.003906 C 254.386719 681.5625 253.96875 681.101562 253.574219 680.617188 C 253.175781 680.132812 252.804688 679.632812 252.457031 679.113281 C 252.109375 678.59375 251.789062 678.058594 251.496094 677.507812 C 251.199219 676.957031 250.933594 676.390625 250.695312 675.8125 C 250.457031 675.234375 250.246094 674.648438 250.0625 674.050781 C 249.882812 673.453125 249.730469 672.84375 249.609375 672.234375 C 249.488281 671.621094 249.394531 671 249.335938 670.378906 C 249.273438 669.757812 249.242188 669.132812 249.242188 668.507812 L 249.242188 646.066406 C 249.242188 645.441406 249.273438 644.820312 249.335938 644.195312 C 249.394531 643.574219 249.488281 642.957031 249.609375 642.34375 C 249.730469 641.730469 249.882812 641.125 250.0625 640.527344 C 250.246094 639.929688 250.457031 639.339844 250.695312 638.761719 C 250.933594 638.183594 251.199219 637.621094 251.496094 637.070312 C 251.789062 636.519531 252.109375 635.980469 252.457031 635.460938 C 252.804688 634.941406 253.175781 634.441406 253.574219 633.957031 C 253.96875 633.476562 254.386719 633.011719 254.828125 632.570312 C 255.269531 632.128906 255.734375 631.707031 256.214844 631.3125 C 256.699219 630.914062 257.199219 630.542969 257.71875 630.195312 C 258.238281 629.847656 258.773438 629.527344 259.324219 629.234375 C 259.875 628.9375 260.441406 628.671875 261.019531 628.433594 C 261.59375 628.191406 262.183594 627.984375 262.78125 627.800781 C 263.378906 627.621094 263.984375 627.46875 264.597656 627.347656 C 265.207031 627.222656 265.824219 627.132812 266.449219 627.070312 C 267.070312 627.011719 267.691406 626.980469 268.316406 626.980469 Z M 268.316406 626.980469 " fill-opacity="1" fill-rule="nonzero"/></g><g clip-path="url(#id6)"><path fill="#fcb335" d="M 742.960938 314.222656 L 746.394531 314.222656 C 763.703125 314.222656 777.753906 328.285156 777.753906 345.605469 L 777.753906 687.597656 L 711.601562 687.597656 L 711.601562 345.605469 C 711.601562 328.285156 725.65625 314.222656 742.960938 314.222656 Z M 742.960938 314.222656 " fill-opacity="1" fill-rule="nonzero"/></g><path fill="#622542" d="M 651.800781 241.617188 C 651.800781 241.617188 659.054688 254.964844 657.1875 272.316406 C 655.320312 289.667969 689.460938 289.132812 687.0625 309.6875 C 684.660156 330.238281 661.722656 323.300781 681.460938 345.1875 C 701.199219 367.078125 704.132812 393.769531 659.320312 407.117188 C 614.507812 420.464844 487.8125 420.414062 503.273438 376.152344 C 518.734375 331.890625 545.953125 384.960938 535.550781 330.105469 C 525.148438 275.253906 609.335938 213.324219 651.800781 241.617188 Z M 651.800781 241.617188 " fill-opacity="1" fill-rule="nonzero"/><path fill="#fb5e00" d="M 627.042969 228.003906 C 627.84375 227.472656 638.832031 214.660156 652.917969 224.269531 C 668.140625 234.652344 658.519531 252.296875 644.117188 258.703125 C 629.710938 265.109375 627.042969 228.003906 627.042969 228.003906 Z M 627.042969 228.003906 " fill-opacity="1" fill-rule="nonzero"/><path fill="#622542" d="M 626.511719 320.246094 C 626.511719 320.246094 654.519531 319.597656 651.585938 267.277344 C 648.648438 214.957031 588.828125 200.054688 563.824219 207.71875 C 534.214844 216.792969 504.339844 267.753906 531.28125 297.140625 C 558.222656 326.527344 626.511719 320.246094 626.511719 320.246094 Z M 626.511719 320.246094 " fill-opacity="1" fill-rule="nonzero"/><g clip-path="url(#id7)"><path fill="#622542" d="M 434.898438 617.726562 C 434.898438 617.726562 348.464844 639.492188 305.507812 657.847656 C 297.746094 661.164062 290.679688 665.898438 284.636719 671.796875 L 268.449219 687.59375 L 619.175781 687.59375 C 619.175781 687.59375 654.59375 652.605469 651.800781 617.726562 C 649.007812 582.847656 434.898438 617.726562 434.898438 617.726562 Z M 434.898438 617.726562 " fill-opacity="1" fill-rule="nonzero"/></g><path fill="#ffa68e" d="M 343.492188 260.464844 L 328.023438 213.097656 L 281.996094 164.503906 C 279.914062 162.308594 276.460938 162.179688 274.21875 164.210938 C 272.3125 165.945312 271.839844 168.757812 273.082031 171.019531 L 286.710938 195.832031 L 268.269531 232.933594 L 288.628906 264.40625 L 294.296875 266.648438 L 299.847656 283.851562 Z M 343.492188 260.464844 " fill-opacity="1" fill-rule="nonzero"/><path fill="#ffa68e" d="M 335.46875 235.902344 C 335.46875 235.902344 315.734375 236.808594 316.945312 222.523438 C 318.046875 209.507812 313.949219 203.414062 309.949219 199.589844 C 306.207031 196.015625 308.789062 189.429688 313.960938 189.625 C 316.480469 189.71875 319.324219 191.078125 322.261719 194.835938 C 331.671875 206.855469 334.058594 212.492188 334.058594 212.492188 Z M 335.46875 235.902344 " fill-opacity="1" fill-rule="nonzero"/><path stroke-linecap="round" transform="matrix(1.513834, 0, 0, 1.514887, 27.659955, 118.569748)" fill="none" stroke-linejoin="round" d="M 203.330629 77.453019 C 203.330629 77.453019 190.294605 78.051248 191.094519 68.6214 C 191.822183 60.02959 189.115376 56.007013 186.473078 53.482589 C 184.001085 51.123193 185.706709 46.775716 189.123117 46.904645 " stroke="#622542" stroke-width="1" stroke-opacity="1" stroke-miterlimit="4"/><path fill="#ffa68e" d="M 286.710938 195.832031 L 301.429688 225.859375 C 301.429688 225.859375 285.632812 243.125 270.707031 243.8125 C 270.707031 243.8125 257.707031 227.371094 259.835938 217.6875 C 261.96875 208.007812 286.710938 195.832031 286.710938 195.832031 Z M 286.710938 195.832031 " fill-opacity="1" fill-rule="nonzero"/><path stroke-linecap="round" transform="matrix(1.513834, 0, 0, 1.514887, 27.659955, 118.569748)" fill="none" stroke-linejoin="round" d="M 159.358561 65.261518 L 167.362865 80.86963 C 167.362865 80.86963 165.311472 82.659161 160.553272 82.674632 " stroke="#622542" stroke-width="1" stroke-opacity="1" stroke-miterlimit="4"/><path stroke-linecap="round" transform="matrix(1.513834, 0, 0, 1.514887, 27.659955, 118.569748)" fill="none" stroke-linejoin="round" d="M 171.122463 51.002 L 179.766699 68.629136 C 180.40405 69.926159 180.094406 71.486197 179.010651 72.442848 L 177.137303 74.095714 C 175.537474 75.508773 173.026775 74.987901 172.118486 73.056549 L 164.405763 56.654236 " stroke="#622542" stroke-width="1" stroke-opacity="1" stroke-miterlimit="4"/><path stroke-linecap="round" transform="matrix(1.513834, 0, 0, 1.514887, 27.659955, 118.569748)" fill="none" stroke-linejoin="round" d="M 167.362865 80.86963 C 172.732613 80.044486 173.935065 76.919254 173.935065 76.919254 L 172.541666 73.726978 " stroke="#622542" stroke-width="1" stroke-opacity="1" stroke-miterlimit="4"/><path fill="#fb5e00" d="M 493.9375 369.480469 L 408.578125 372.148438 L 343.492188 257.855469 L 295.628906 277.800781 L 356.832031 418.265625 C 361.855469 428.195312 371.335938 435.113281 382.324219 436.867188 L 488.601562 453.828125 L 510.476562 391.902344 Z M 493.9375 369.480469 " fill-opacity="1" fill-rule="nonzero"/><path fill="#ffffff" d="M 428.703125 628.496094 C 480.207031 673.167969 643.839844 643.351562 643.839844 643.351562 C 696.648438 611.320312 691.0625 401.117188 680.214844 388.773438 C 669.367188 376.425781 632.914062 378.820312 632.914062 378.820312 L 541.953125 385.226562 C 541.953125 385.226562 519.011719 368.945312 493.9375 369.480469 C 493.9375 369.480469 504.074219 397.570312 493.9375 412.886719 C 483.800781 428.203125 464.59375 437.8125 471.53125 479.453125 C 478.464844 521.097656 460.207031 585.800781 430.632812 598.785156 C 425.375 601.089844 422.988281 605.167969 422.023438 609.269531 C 420.355469 616.371094 423.191406 623.71875 428.703125 628.496094 Z M 428.703125 628.496094 " fill-opacity="1" fill-rule="nonzero"/><path fill="#ffa68e" d="M 607.304688 339.316406 C 607.304688 339.316406 606.285156 349.289062 607.054688 359.3125 C 607.898438 370.332031 617.128906 378.820312 628.171875 378.820312 L 632.914062 378.820312 C 632.914062 378.820312 625.710938 398.039062 589.167969 409.785156 C 552.621094 421.53125 545.953125 396.972656 541.953125 385.226562 C 546.863281 384 550.148438 379.371094 549.691406 374.324219 L 547.019531 344.921875 Z M 607.304688 339.316406 " fill-opacity="1" fill-rule="nonzero"/><path fill="#ffa68e" d="M 605.703125 341.71875 C 572.359375 371.082031 524.871094 353.464844 524.875 321.964844 C 524.878906 294.203125 538.75 233.34375 561.957031 249.894531 C 585.164062 266.445312 596.101562 253.097656 596.101562 253.097656 C 596.101562 253.097656 617.707031 242.417969 613.171875 272.050781 C 608.636719 301.679688 604.105469 315.558594 617.441406 312.089844 C 630.777344 308.617188 646.25 325.433594 628.644531 336.378906 C 611.039062 347.324219 605.703125 341.71875 605.703125 341.71875 Z M 605.703125 341.71875 " fill-opacity="1" fill-rule="nonzero"/><path fill="#ffffff" d="M 551.019531 330.105469 L 592.632812 315.824219 C 592.632812 315.824219 597.167969 330.105469 582.171875 337.179688 C 559.121094 348.054688 551.019531 330.105469 551.019531 330.105469 Z M 551.019531 330.105469 " fill-opacity="1" fill-rule="nonzero"/><path stroke-linecap="round" transform="matrix(1.513834, 0, 0, 1.514887, 27.659955, 118.569748)" fill="none" stroke-linejoin="round" d="M 381.840555 147.304027 C 373.887858 154.302278 364.717226 157.257325 356.243295 157.198018 " stroke="#622542" stroke-width="1" stroke-opacity="1" stroke-miterlimit="4"/><path stroke-linecap="round" transform="matrix(1.513834, 0, 0, 1.514887, 27.659955, 118.569748)" fill="none" stroke-linejoin="round" d="M 397.524038 136.553949 C 391.003445 125.981793 383.956458 143.250507 383.956458 143.250507 " stroke="#622542" stroke-width="1" stroke-opacity="1" stroke-miterlimit="4"/><path stroke-linecap="round" transform="matrix(1.513834, 0, 0, 1.514887, 27.659955, 118.569748)" fill="none" stroke-linejoin="round" d="M 390.740248 136.025341 L 393.294813 141.311419 L 387.656707 143.250507 " stroke="#622542" stroke-width="1" stroke-opacity="1" stroke-miterlimit="4"/><path stroke-linecap="round" transform="matrix(1.513834, 0, 0, 1.514887, 27.659955, 118.569748)" fill="none" stroke-linejoin="round" d="M 356.467787 106.423304 C 356.467787 106.423304 370.946237 93.91206 374.014296 112.415912 " stroke="#622542" stroke-width="1" stroke-opacity="1" stroke-miterlimit="4"/><path stroke-linecap="round" transform="matrix(1.513834, 0, 0, 1.514887, 27.659955, 118.569748)" fill="none" stroke-linejoin="round" d="M 336.733125 99.904668 C 336.733125 99.904668 345.336075 94.389097 346.822368 102.9938 C 347.181039 105.077289 346.956547 107.214927 346.321776 109.231372 C 345.145128 112.965148 342.342847 119.72875 336.733125 123.163411 L 340.608839 129.15344 " stroke="#622542" stroke-width="1" stroke-opacity="1" stroke-miterlimit="4"/><path fill="#622542" d="M 572.867188 287.808594 C 573.09375 287.875 573.308594 287.984375 573.503906 288.136719 C 573.703125 288.289062 573.882812 288.480469 574.042969 288.714844 C 574.203125 288.949219 574.339844 289.21875 574.457031 289.523438 C 574.574219 289.828125 574.667969 290.167969 574.738281 290.53125 C 574.808594 290.898438 574.851562 291.289062 574.871094 291.703125 C 574.886719 292.117188 574.882812 292.542969 574.847656 292.988281 C 574.816406 293.433594 574.757812 293.882812 574.675781 294.339844 C 574.59375 294.796875 574.488281 295.253906 574.355469 295.707031 C 574.226562 296.160156 574.078125 296.601562 573.90625 297.035156 C 573.734375 297.46875 573.546875 297.878906 573.339844 298.273438 C 573.132812 298.667969 572.910156 299.035156 572.675781 299.378906 C 572.441406 299.71875 572.199219 300.027344 571.949219 300.300781 C 571.695312 300.574219 571.4375 300.8125 571.175781 301.007812 C 570.917969 301.207031 570.65625 301.363281 570.394531 301.476562 C 570.136719 301.589844 569.882812 301.660156 569.632812 301.683594 C 569.386719 301.707031 569.148438 301.6875 568.921875 301.625 C 568.695312 301.558594 568.480469 301.449219 568.285156 301.296875 C 568.085938 301.144531 567.90625 300.953125 567.746094 300.71875 C 567.585938 300.484375 567.445312 300.214844 567.328125 299.910156 C 567.210938 299.601562 567.121094 299.265625 567.050781 298.898438 C 566.980469 298.53125 566.9375 298.144531 566.917969 297.730469 C 566.898438 297.316406 566.90625 296.886719 566.941406 296.445312 C 566.972656 296 567.03125 295.550781 567.113281 295.09375 C 567.195312 294.632812 567.300781 294.179688 567.429688 293.726562 C 567.5625 293.273438 567.710938 292.828125 567.882812 292.398438 C 568.054688 291.964844 568.242188 291.550781 568.449219 291.15625 C 568.65625 290.765625 568.878906 290.394531 569.113281 290.054688 C 569.34375 289.714844 569.589844 289.40625 569.839844 289.132812 C 570.09375 288.855469 570.351562 288.621094 570.609375 288.421875 C 570.871094 288.226562 571.132812 288.070312 571.390625 287.957031 C 571.652344 287.84375 571.90625 287.773438 572.152344 287.75 C 572.402344 287.722656 572.640625 287.746094 572.867188 287.808594 Z M 572.867188 287.808594 " fill-opacity="1" fill-rule="nonzero"/><path fill="#622542" d="M 541.894531 279.355469 C 542.121094 279.421875 542.335938 279.527344 542.53125 279.679688 C 542.730469 279.832031 542.910156 280.027344 543.070312 280.257812 C 543.230469 280.492188 543.367188 280.761719 543.484375 281.070312 C 543.601562 281.375 543.695312 281.710938 543.765625 282.078125 C 543.835938 282.445312 543.878906 282.835938 543.898438 283.25 C 543.914062 283.660156 543.910156 284.089844 543.875 284.535156 C 543.84375 284.976562 543.785156 285.429688 543.703125 285.886719 C 543.621094 286.34375 543.515625 286.800781 543.382812 287.253906 C 543.253906 287.707031 543.105469 288.148438 542.933594 288.582031 C 542.761719 289.011719 542.574219 289.425781 542.367188 289.820312 C 542.160156 290.214844 541.9375 290.582031 541.703125 290.921875 C 541.46875 291.265625 541.226562 291.570312 540.976562 291.847656 C 540.722656 292.121094 540.464844 292.355469 540.203125 292.554688 C 539.945312 292.753906 539.683594 292.910156 539.421875 293.023438 C 539.164062 293.136719 538.910156 293.203125 538.660156 293.230469 C 538.414062 293.253906 538.175781 293.234375 537.949219 293.167969 C 537.722656 293.105469 537.507812 292.996094 537.3125 292.84375 C 537.113281 292.691406 536.933594 292.496094 536.773438 292.265625 C 536.613281 292.03125 536.472656 291.761719 536.355469 291.453125 C 536.238281 291.148438 536.148438 290.8125 536.078125 290.445312 C 536.007812 290.078125 535.964844 289.6875 535.945312 289.277344 C 535.925781 288.863281 535.933594 288.433594 535.96875 287.988281 C 536 287.546875 536.058594 287.09375 536.140625 286.636719 C 536.222656 286.179688 536.328125 285.726562 536.457031 285.269531 C 536.589844 284.816406 536.738281 284.375 536.910156 283.941406 C 537.082031 283.511719 537.269531 283.097656 537.476562 282.703125 C 537.683594 282.308594 537.90625 281.941406 538.140625 281.601562 C 538.371094 281.261719 538.617188 280.953125 538.867188 280.675781 C 539.121094 280.402344 539.378906 280.167969 539.636719 279.96875 C 539.898438 279.769531 540.160156 279.613281 540.417969 279.5 C 540.679688 279.386719 540.933594 279.320312 541.179688 279.292969 C 541.429688 279.269531 541.667969 279.289062 541.894531 279.355469 Z M 541.894531 279.355469 " fill-opacity="1" fill-rule="nonzero"/><path fill="#ffa68e" d="M 586.28125 468.242188 L 582.507812 464.496094 C 578.992188 461 573.976562 459.46875 569.113281 460.40625 L 552.445312 463.617188 L 555.988281 476.691406 L 585.164062 476.691406 L 586.277344 468.242188 Z M 586.28125 468.242188 " fill-opacity="1" fill-rule="nonzero"/><path fill="#fcb335" d="M 558.109375 421.777344 L 571.203125 510.257812 C 571.65625 513.335938 569.535156 516.199219 566.457031 516.65625 L 562.277344 517.273438 C 565.355469 516.820312 567.480469 513.957031 567.023438 510.875 L 553.933594 422.394531 C 553.476562 419.316406 550.613281 417.191406 547.535156 417.644531 L 551.714844 417.027344 C 554.792969 416.570312 557.652344 418.695312 558.109375 421.777344 Z M 558.109375 421.777344 " fill-opacity="1" fill-rule="nonzero"/><path fill="#622542" d="M 501.328125 424.492188 L 547.535156 417.648438 C 547.902344 417.59375 548.269531 417.574219 548.636719 417.59375 C 549.007812 417.609375 549.371094 417.664062 549.730469 417.753906 C 550.089844 417.84375 550.4375 417.96875 550.769531 418.128906 C 551.105469 418.285156 551.417969 418.476562 551.714844 418.695312 C 552.011719 418.917969 552.285156 419.164062 552.535156 419.4375 C 552.78125 419.710938 553 420.007812 553.191406 420.324219 C 553.382812 420.644531 553.539062 420.976562 553.664062 421.324219 C 553.789062 421.671875 553.878906 422.03125 553.929688 422.394531 L 567.023438 510.875 C 567.078125 511.242188 567.09375 511.609375 567.078125 511.980469 C 567.058594 512.347656 567.003906 512.714844 566.914062 513.074219 C 566.824219 513.429688 566.699219 513.777344 566.542969 514.113281 C 566.382812 514.445312 566.195312 514.761719 565.972656 515.058594 C 565.753906 515.355469 565.507812 515.628906 565.234375 515.878906 C 564.957031 516.125 564.664062 516.347656 564.347656 516.535156 C 564.027344 516.726562 563.695312 516.882812 563.347656 517.007812 C 563 517.132812 562.640625 517.222656 562.277344 517.277344 L 516.070312 524.121094 C 515.703125 524.175781 515.335938 524.195312 514.96875 524.175781 C 514.597656 524.160156 514.234375 524.105469 513.875 524.015625 C 513.515625 523.925781 513.171875 523.800781 512.835938 523.640625 C 512.5 523.484375 512.1875 523.292969 511.890625 523.074219 C 511.59375 522.851562 511.320312 522.605469 511.070312 522.332031 C 510.824219 522.058594 510.605469 521.761719 510.414062 521.445312 C 510.222656 521.125 510.066406 520.792969 509.941406 520.445312 C 509.816406 520.097656 509.726562 519.738281 509.675781 519.375 L 496.582031 430.894531 C 496.527344 430.527344 496.511719 430.160156 496.527344 429.789062 C 496.546875 429.421875 496.601562 429.054688 496.691406 428.695312 C 496.78125 428.339844 496.90625 427.992188 497.0625 427.65625 C 497.222656 427.324219 497.410156 427.007812 497.632812 426.710938 C 497.851562 426.414062 498.097656 426.140625 498.371094 425.890625 C 498.648438 425.644531 498.941406 425.421875 499.257812 425.234375 C 499.578125 425.042969 499.910156 424.886719 500.257812 424.761719 C 500.605469 424.636719 500.964844 424.546875 501.328125 424.492188 Z M 501.328125 424.492188 " fill-opacity="1" fill-rule="nonzero"/><path fill="#ffffff" d="M 529.773438 442.535156 C 529.773438 442.921875 529.738281 443.300781 529.660156 443.679688 C 529.585938 444.058594 529.476562 444.425781 529.328125 444.78125 C 529.179688 445.136719 529 445.476562 528.785156 445.796875 C 528.570312 446.117188 528.328125 446.414062 528.054688 446.6875 C 527.78125 446.960938 527.488281 447.203125 527.164062 447.417969 C 526.84375 447.632812 526.507812 447.8125 526.152344 447.960938 C 525.796875 448.109375 525.429688 448.21875 525.050781 448.292969 C 524.671875 448.371094 524.289062 448.40625 523.90625 448.40625 C 523.519531 448.40625 523.136719 448.371094 522.761719 448.292969 C 522.382812 448.21875 522.015625 448.109375 521.660156 447.960938 C 521.304688 447.8125 520.964844 447.632812 520.644531 447.417969 C 520.324219 447.203125 520.027344 446.960938 519.753906 446.6875 C 519.484375 446.414062 519.238281 446.117188 519.023438 445.796875 C 518.8125 445.476562 518.628906 445.136719 518.484375 444.78125 C 518.335938 444.425781 518.222656 444.058594 518.148438 443.679688 C 518.074219 443.300781 518.035156 442.921875 518.035156 442.535156 C 518.035156 442.148438 518.074219 441.765625 518.148438 441.386719 C 518.222656 441.011719 518.335938 440.644531 518.484375 440.285156 C 518.628906 439.929688 518.8125 439.59375 519.023438 439.269531 C 519.238281 438.949219 519.484375 438.652344 519.753906 438.382812 C 520.027344 438.109375 520.324219 437.867188 520.644531 437.652344 C 520.964844 437.4375 521.304688 437.257812 521.660156 437.109375 C 522.015625 436.960938 522.382812 436.847656 522.761719 436.773438 C 523.136719 436.699219 523.519531 436.660156 523.90625 436.660156 C 524.289062 436.660156 524.671875 436.699219 525.050781 436.773438 C 525.429688 436.847656 525.796875 436.960938 526.152344 437.109375 C 526.507812 437.257812 526.84375 437.4375 527.164062 437.652344 C 527.488281 437.867188 527.78125 438.109375 528.054688 438.382812 C 528.328125 438.652344 528.570312 438.949219 528.785156 439.269531 C 529 439.59375 529.179688 439.929688 529.328125 440.285156 C 529.476562 440.644531 529.585938 441.011719 529.660156 441.386719 C 529.738281 441.765625 529.773438 442.148438 529.773438 442.535156 Z M 529.773438 442.535156 " fill-opacity="1" fill-rule="nonzero"/><path fill="#ffffff" d="M 536.394531 434.75 L 536.402344 434.746094 C 536.6875 434.703125 536.96875 434.71875 537.25 434.789062 C 537.527344 434.859375 537.785156 434.980469 538.015625 435.152344 C 538.246094 435.324219 538.4375 435.535156 538.585938 435.78125 C 538.734375 436.027344 538.828125 436.296875 538.871094 436.582031 L 539.953125 443.894531 C 539.996094 444.179688 539.980469 444.460938 539.910156 444.742188 C 539.839844 445.023438 539.71875 445.277344 539.546875 445.511719 C 539.375 445.742188 539.167969 445.929688 538.917969 446.078125 C 538.671875 446.226562 538.40625 446.324219 538.121094 446.367188 L 538.113281 446.367188 C 537.828125 446.410156 537.542969 446.394531 537.265625 446.324219 C 536.984375 446.253906 536.730469 446.132812 536.5 445.960938 C 536.265625 445.789062 536.078125 445.582031 535.929688 445.332031 C 535.78125 445.085938 535.6875 444.820312 535.644531 444.535156 L 534.5625 437.21875 C 534.519531 436.933594 534.53125 436.652344 534.601562 436.371094 C 534.671875 436.089844 534.792969 435.835938 534.964844 435.605469 C 535.136719 435.371094 535.347656 435.183594 535.59375 435.035156 C 535.84375 434.886719 536.109375 434.789062 536.394531 434.75 Z M 536.394531 434.75 " fill-opacity="1" fill-rule="nonzero"/><path fill="#ffa68e" d="M 598.558594 529.8125 L 587.433594 524.183594 L 548.175781 526.96875 C 544.738281 526.96875 541.953125 524.179688 541.953125 520.738281 L 541.953125 516.292969 C 538.121094 516.292969 535.015625 513.183594 535.015625 509.351562 L 535.015625 502.144531 C 531.359375 501.6875 528.613281 498.574219 528.613281 494.886719 L 528.613281 491.347656 C 528.613281 488.429688 530.910156 486.023438 533.824219 485.890625 L 533.625 479.890625 C 533.507812 476.339844 536.160156 473.304688 539.691406 472.949219 L 586.277344 468.242188 L 614.507812 482.804688 C 614.507812 482.804688 623.574219 485.859375 625.710938 499.207031 C 627.84375 512.554688 624.859375 533.015625 598.558594 529.8125 Z M 598.558594 529.8125 " fill-opacity="1" fill-rule="nonzero"/><path stroke-linecap="round" transform="matrix(1.513834, 0, 0, 1.514887, 27.659955, 118.569748)" fill="none" stroke-linejoin="round" d="M 334.359185 242.474059 L 342.900207 241.868094 " stroke="#622542" stroke-width="1" stroke-opacity="1" stroke-miterlimit="4"/><path stroke-linecap="round" transform="matrix(1.513834, 0, 0, 1.514887, 27.659955, 118.569748)" fill="none" stroke-linejoin="round" d="M 335.146198 253.203508 L 343.48595 252.6749 " stroke="#622542" stroke-width="1" stroke-opacity="1" stroke-miterlimit="4"/><path stroke-linecap="round" transform="matrix(1.513834, 0, 0, 1.514887, 27.659955, 118.569748)" fill="none" stroke-linejoin="round" d="M 339.728933 262.543105 L 345.013529 262.543105 " stroke="#622542" stroke-width="1" stroke-opacity="1" stroke-miterlimit="4"/><path fill="#fb5e00" d="M 695.148438 410.585938 C 685.070312 382.652344 672.25 384.902344 663.171875 391.859375 C 656.214844 397.191406 651.726562 405.140625 650.21875 413.785156 L 636.539062 492.265625 L 614.507812 482.804688 C 626.167969 487.894531 604.9375 532.230469 593.277344 527.140625 C 593.277344 527.140625 629.976562 596.371094 669.457031 573.414062 C 708.933594 550.457031 712.667969 459.167969 695.148438 410.585938 Z M 695.148438 410.585938 " fill-opacity="1" fill-rule="nonzero"/><path stroke-linecap="round" transform="matrix(1.513834, 0, 0, 1.514887, 27.659955, 118.569748)" fill="none" stroke-linejoin="round" d="M 402.209988 246.684871 C 402.209988 246.684871 410.175587 245.552877 414.438356 259.234794 " stroke="#622542" stroke-width="1" stroke-opacity="1" stroke-miterlimit="4"/><g clip-path="url(#id8)"><path fill="#fcb335" d="M 729.617188 561.492188 C 717.941406 561.492188 706.601562 565.386719 697.386719 572.5625 L 618.808594 633.757812 C 606.03125 643.707031 598.558594 659 598.558594 675.199219 L 598.558594 687.59375 L 711.601562 687.59375 L 758.550781 620.46875 L 758.550781 590.445312 C 758.550781 574.453125 745.597656 561.492188 729.617188 561.492188 Z M 729.617188 561.492188 " fill-opacity="1" fill-rule="nonzero"/></g><path stroke-linecap="round" transform="matrix(1.513834, 0, 0, 1.514887, 27.659955, 118.569748)" fill="none" stroke-linejoin="round" d="M 482.807813 331.311112 L 482.807813 311.492188 C 482.807813 300.935503 474.251309 292.379793 463.69502 292.379793 C 455.982297 292.379793 448.491486 294.950631 442.404395 299.687473 L 390.497693 340.083423 C 382.057306 346.651053 377.12106 356.746172 377.12106 367.439521 " stroke="#622542" stroke-width="1" stroke-opacity="1" stroke-miterlimit="4"/><g clip-path="url(#id9)"><path fill="#fb5e00" d="M 633.15625 649.757812 L 633.261719 649.757812 C 646.664062 649.757812 657.542969 660.644531 657.542969 674.054688 L 657.542969 687.59375 L 608.875 687.59375 L 608.875 674.054688 C 608.875 660.644531 619.753906 649.757812 633.15625 649.757812 Z M 633.15625 649.757812 " fill-opacity="1" fill-rule="nonzero"/></g><path fill="#339967" d="M 44.066406 425.835938 L 183.234375 396.066406 C 184.011719 395.898438 184.796875 395.8125 185.59375 395.800781 C 186.390625 395.789062 187.175781 395.855469 187.960938 396 C 188.742188 396.144531 189.5 396.363281 190.242188 396.65625 C 190.980469 396.949219 191.683594 397.3125 192.351562 397.746094 C 193.019531 398.179688 193.636719 398.671875 194.207031 399.226562 C 194.777344 399.78125 195.289062 400.386719 195.738281 401.042969 C 196.191406 401.699219 196.574219 402.390625 196.886719 403.121094 C 197.203125 403.851562 197.441406 404.605469 197.609375 405.382812 L 240.984375 608.449219 C 241.152344 609.226562 241.242188 610.015625 241.253906 610.808594 C 241.265625 611.605469 241.199219 612.394531 241.054688 613.175781 C 240.910156 613.960938 240.691406 614.71875 240.398438 615.460938 C 240.101562 616.199219 239.738281 616.902344 239.308594 617.570312 C 238.875 618.238281 238.382812 618.859375 237.828125 619.429688 C 237.273438 620 236.667969 620.511719 236.015625 620.960938 C 235.359375 621.414062 234.667969 621.796875 233.9375 622.113281 C 233.207031 622.425781 232.453125 622.667969 231.675781 622.832031 L 92.503906 652.601562 C 91.726562 652.769531 90.941406 652.859375 90.144531 652.871094 C 89.351562 652.882812 88.5625 652.816406 87.78125 652.671875 C 86.996094 652.527344 86.238281 652.308594 85.5 652.011719 C 84.757812 651.71875 84.054688 651.355469 83.390625 650.921875 C 82.722656 650.492188 82.101562 649.996094 81.53125 649.441406 C 80.960938 648.886719 80.453125 648.28125 80 647.628906 C 79.550781 646.972656 79.167969 646.277344 78.851562 645.546875 C 78.535156 644.816406 78.296875 644.0625 78.128906 643.285156 L 34.753906 440.222656 C 34.585938 439.441406 34.496094 438.65625 34.488281 437.859375 C 34.476562 437.066406 34.542969 436.277344 34.6875 435.492188 C 34.828125 434.710938 35.046875 433.949219 35.34375 433.210938 C 35.636719 432.46875 36 431.765625 36.433594 431.097656 C 36.863281 430.429688 37.355469 429.8125 37.910156 429.242188 C 38.464844 428.671875 39.070312 428.160156 39.726562 427.707031 C 40.378906 427.257812 41.074219 426.875 41.800781 426.558594 C 42.53125 426.242188 43.285156 426.003906 44.066406 425.835938 Z M 44.066406 425.835938 " fill-opacity="1" fill-rule="nonzero"/><path fill="#fcb335" d="M 127.660156 476.550781 C 105.644531 481.261719 91.613281 502.9375 96.320312 524.96875 L 176.046875 507.914062 C 171.339844 485.882812 149.675781 471.839844 127.660156 476.550781 Z M 127.660156 476.550781 " fill-opacity="1" fill-rule="nonzero"/><path fill="#622542" d="M 96.835938 547.230469 L 184.671875 528.441406 C 185 528.367188 185.335938 528.332031 185.671875 528.328125 C 186.007812 528.320312 186.34375 528.351562 186.675781 528.410156 C 187.003906 528.472656 187.328125 528.566406 187.640625 528.691406 C 187.953125 528.8125 188.25 528.96875 188.535156 529.152344 C 188.816406 529.335938 189.078125 529.542969 189.320312 529.777344 C 189.5625 530.015625 189.777344 530.269531 189.96875 530.546875 C 190.160156 530.824219 190.324219 531.121094 190.457031 531.429688 C 190.589844 531.738281 190.691406 532.058594 190.761719 532.386719 L 191.824219 537.363281 C 191.894531 537.695312 191.933594 538.027344 191.9375 538.363281 C 191.945312 538.703125 191.914062 539.035156 191.855469 539.367188 C 191.792969 539.699219 191.699219 540.023438 191.574219 540.335938 C 191.453125 540.648438 191.296875 540.945312 191.113281 541.230469 C 190.929688 541.511719 190.722656 541.773438 190.488281 542.015625 C 190.253906 542.257812 189.996094 542.476562 189.71875 542.667969 C 189.441406 542.859375 189.148438 543.019531 188.839844 543.152344 C 188.527344 543.289062 188.210938 543.390625 187.878906 543.460938 L 100.042969 562.25 C 99.714844 562.320312 99.378906 562.355469 99.042969 562.363281 C 98.707031 562.367188 98.371094 562.339844 98.039062 562.277344 C 97.710938 562.214844 97.386719 562.125 97.074219 562 C 96.761719 561.875 96.460938 561.71875 96.179688 561.535156 C 95.898438 561.355469 95.636719 561.144531 95.394531 560.910156 C 95.152344 560.675781 94.933594 560.417969 94.742188 560.140625 C 94.554688 559.863281 94.390625 559.570312 94.257812 559.257812 C 94.125 558.949219 94.023438 558.628906 93.953125 558.300781 L 92.886719 553.324219 C 92.816406 552.996094 92.78125 552.660156 92.777344 552.324219 C 92.769531 551.988281 92.800781 551.652344 92.859375 551.320312 C 92.921875 550.988281 93.015625 550.667969 93.136719 550.351562 C 93.261719 550.039062 93.417969 549.742188 93.601562 549.457031 C 93.78125 549.175781 93.992188 548.914062 94.226562 548.671875 C 94.460938 548.429688 94.71875 548.214844 94.996094 548.023438 C 95.273438 547.832031 95.566406 547.667969 95.875 547.535156 C 96.183594 547.402344 96.503906 547.300781 96.835938 547.230469 Z M 96.835938 547.230469 " fill-opacity="1" fill-rule="nonzero"/><path fill="#622542" d="M 92.265625 525.835938 L 180.101562 507.046875 C 180.429688 506.976562 180.765625 506.941406 181.101562 506.933594 C 181.4375 506.929688 181.773438 506.957031 182.105469 507.019531 C 182.433594 507.082031 182.757812 507.171875 183.070312 507.296875 C 183.382812 507.421875 183.683594 507.578125 183.964844 507.761719 C 184.246094 507.941406 184.507812 508.152344 184.75 508.386719 C 184.992188 508.621094 185.210938 508.878906 185.402344 509.15625 C 185.589844 509.433594 185.753906 509.726562 185.886719 510.039062 C 186.019531 510.347656 186.121094 510.667969 186.191406 510.996094 L 187.257812 515.972656 C 187.328125 516.300781 187.363281 516.636719 187.367188 516.972656 C 187.375 517.308594 187.34375 517.644531 187.285156 517.976562 C 187.222656 518.308594 187.128906 518.628906 187.007812 518.945312 C 186.882812 519.257812 186.726562 519.554688 186.542969 519.839844 C 186.363281 520.121094 186.152344 520.382812 185.917969 520.625 C 185.683594 520.867188 185.425781 521.082031 185.148438 521.273438 C 184.871094 521.464844 184.578125 521.628906 184.269531 521.761719 C 183.960938 521.894531 183.640625 521.996094 183.308594 522.066406 L 95.472656 540.859375 C 95.144531 540.929688 94.808594 540.964844 94.472656 540.96875 C 94.136719 540.976562 93.800781 540.945312 93.46875 540.886719 C 93.140625 540.824219 92.816406 540.730469 92.503906 540.609375 C 92.191406 540.484375 91.894531 540.328125 91.609375 540.144531 C 91.328125 539.960938 91.066406 539.753906 90.824219 539.519531 C 90.582031 539.28125 90.367188 539.027344 90.175781 538.75 C 89.984375 538.472656 89.820312 538.179688 89.6875 537.867188 C 89.554688 537.558594 89.453125 537.238281 89.382812 536.910156 L 88.320312 531.933594 C 88.25 531.601562 88.210938 531.269531 88.207031 530.933594 C 88.199219 530.59375 88.230469 530.261719 88.289062 529.929688 C 88.351562 529.597656 88.445312 529.273438 88.566406 528.960938 C 88.691406 528.648438 88.847656 528.351562 89.03125 528.066406 C 89.214844 527.785156 89.421875 527.523438 89.65625 527.28125 C 89.890625 527.039062 90.148438 526.820312 90.425781 526.628906 C 90.703125 526.4375 90.996094 526.277344 91.304688 526.144531 C 91.617188 526.011719 91.933594 525.90625 92.265625 525.835938 Z M 92.265625 525.835938 " fill-opacity="1" fill-rule="nonzero"/><path fill="#ffffff" d="M 179.222656 522.941406 C 180.371094 529.558594 177.335938 535.640625 172.269531 536.722656 C 169.046875 537.414062 165.757812 535.921875 163.339844 533.074219 C 162.3125 536.660156 159.917969 539.367188 156.695312 540.054688 C 153.472656 540.746094 150.179688 539.253906 147.777344 536.402344 C 146.734375 539.992188 144.34375 542.699219 141.117188 543.386719 C 137.894531 544.078125 134.605469 542.585938 132.203125 539.734375 C 131.175781 543.320312 128.78125 546.027344 125.558594 546.714844 C 122.78125 547.308594 119.953125 546.273438 117.675781 544.160156 C 116.476562 547.019531 114.316406 549.121094 111.539062 549.714844 C 106.472656 550.796875 101.21875 546.488281 99.5625 539.980469 Z M 179.222656 522.941406 " fill-opacity="1" fill-rule="nonzero"/><path fill="#fcb335" d="M 104.097656 561.378906 L 183.792969 544.332031 L 184.070312 545.636719 C 186.1875 555.550781 179.863281 565.320312 169.957031 567.441406 L 126.164062 576.808594 C 116.257812 578.925781 106.492188 572.597656 104.375 562.683594 Z M 104.097656 561.378906 " fill-opacity="1" fill-rule="nonzero"/><path fill="#ffffff" d="M 117.945312 507.824219 C 117.945312 508.128906 117.917969 508.425781 117.859375 508.722656 C 117.800781 509.019531 117.710938 509.308594 117.597656 509.585938 C 117.480469 509.867188 117.339844 510.132812 117.171875 510.382812 C 117.003906 510.632812 116.8125 510.867188 116.601562 511.078125 C 116.386719 511.292969 116.152344 511.484375 115.902344 511.652344 C 115.652344 511.820312 115.386719 511.960938 115.109375 512.078125 C 114.828125 512.191406 114.542969 512.28125 114.246094 512.339844 C 113.949219 512.398438 113.652344 512.425781 113.347656 512.425781 C 113.046875 512.425781 112.75 512.398438 112.453125 512.339844 C 112.15625 512.28125 111.867188 512.191406 111.589844 512.078125 C 111.3125 511.960938 111.046875 511.820312 110.792969 511.652344 C 110.542969 511.484375 110.3125 511.292969 110.097656 511.078125 C 109.882812 510.867188 109.695312 510.632812 109.527344 510.382812 C 109.359375 510.132812 109.21875 509.867188 109.101562 509.585938 C 108.984375 509.308594 108.898438 509.019531 108.839844 508.722656 C 108.78125 508.425781 108.75 508.128906 108.75 507.824219 C 108.75 507.523438 108.78125 507.226562 108.839844 506.929688 C 108.898438 506.632812 108.984375 506.34375 109.101562 506.066406 C 109.21875 505.785156 109.359375 505.519531 109.527344 505.269531 C 109.695312 505.019531 109.882812 504.785156 110.097656 504.574219 C 110.3125 504.359375 110.542969 504.167969 110.792969 504 C 111.046875 503.832031 111.3125 503.691406 111.589844 503.574219 C 111.867188 503.460938 112.15625 503.371094 112.453125 503.3125 C 112.75 503.253906 113.046875 503.226562 113.347656 503.226562 C 113.652344 503.226562 113.949219 503.253906 114.246094 503.3125 C 114.542969 503.371094 114.828125 503.460938 115.109375 503.574219 C 115.386719 503.691406 115.652344 503.832031 115.902344 504 C 116.152344 504.167969 116.386719 504.359375 116.601562 504.574219 C 116.8125 504.785156 117.003906 505.019531 117.171875 505.269531 C 117.339844 505.519531 117.480469 505.785156 117.597656 506.066406 C 117.710938 506.34375 117.800781 506.632812 117.859375 506.929688 C 117.917969 507.226562 117.945312 507.523438 117.945312 507.824219 Z M 117.945312 507.824219 " fill-opacity="1" fill-rule="nonzero"/><path fill="#ffffff" d="M 135.195312 487.519531 C 135.195312 487.824219 135.164062 488.121094 135.105469 488.417969 C 135.046875 488.714844 134.960938 489.003906 134.84375 489.28125 C 134.726562 489.558594 134.585938 489.824219 134.417969 490.078125 C 134.25 490.328125 134.058594 490.558594 133.847656 490.773438 C 133.632812 490.988281 133.402344 491.179688 133.148438 491.347656 C 132.898438 491.515625 132.632812 491.65625 132.355469 491.769531 C 132.078125 491.886719 131.789062 491.972656 131.492188 492.03125 C 131.195312 492.089844 130.898438 492.121094 130.597656 492.121094 C 130.292969 492.121094 129.996094 492.089844 129.699219 492.03125 C 129.402344 491.972656 129.117188 491.886719 128.835938 491.769531 C 128.558594 491.65625 128.292969 491.515625 128.042969 491.347656 C 127.789062 491.179688 127.558594 490.988281 127.34375 490.773438 C 127.132812 490.558594 126.941406 490.328125 126.773438 490.078125 C 126.605469 489.824219 126.464844 489.558594 126.347656 489.28125 C 126.234375 489.003906 126.144531 488.714844 126.085938 488.417969 C 126.027344 488.121094 126 487.824219 126 487.519531 C 126 487.21875 126.027344 486.917969 126.085938 486.621094 C 126.144531 486.328125 126.234375 486.039062 126.347656 485.761719 C 126.464844 485.480469 126.605469 485.214844 126.773438 484.964844 C 126.941406 484.714844 127.132812 484.480469 127.34375 484.265625 C 127.558594 484.054688 127.789062 483.863281 128.042969 483.695312 C 128.292969 483.527344 128.558594 483.386719 128.835938 483.269531 C 129.117188 483.15625 129.402344 483.066406 129.699219 483.007812 C 129.996094 482.949219 130.292969 482.917969 130.597656 482.917969 C 130.898438 482.917969 131.195312 482.949219 131.492188 483.007812 C 131.789062 483.066406 132.078125 483.15625 132.355469 483.269531 C 132.632812 483.386719 132.898438 483.527344 133.148438 483.695312 C 133.402344 483.863281 133.632812 484.054688 133.847656 484.265625 C 134.058594 484.480469 134.25 484.714844 134.417969 484.964844 C 134.585938 485.214844 134.726562 485.480469 134.84375 485.761719 C 134.960938 486.039062 135.046875 486.328125 135.105469 486.621094 C 135.164062 486.917969 135.195312 487.21875 135.195312 487.519531 Z M 135.195312 487.519531 " fill-opacity="1" fill-rule="nonzero"/><path fill="#339967" d="M 107.789062 160.851562 L 183.597656 144.636719 C 184.375 144.46875 185.160156 144.382812 185.957031 144.371094 C 186.75 144.359375 187.539062 144.425781 188.320312 144.570312 C 189.105469 144.714844 189.863281 144.933594 190.601562 145.226562 C 191.34375 145.519531 192.046875 145.882812 192.710938 146.316406 C 193.378906 146.75 194 147.242188 194.570312 147.796875 C 195.140625 148.351562 195.648438 148.957031 196.101562 149.613281 C 196.550781 150.269531 196.933594 150.960938 197.25 151.691406 C 197.566406 152.421875 197.804688 153.175781 197.972656 153.953125 L 222.503906 268.792969 C 222.667969 269.570312 222.757812 270.355469 222.769531 271.152344 C 222.78125 271.949219 222.714844 272.738281 222.570312 273.519531 C 222.425781 274.300781 222.207031 275.0625 221.914062 275.804688 C 221.617188 276.542969 221.253906 277.246094 220.824219 277.914062 C 220.390625 278.582031 219.898438 279.199219 219.34375 279.773438 C 218.789062 280.34375 218.183594 280.851562 217.53125 281.304688 C 216.875 281.757812 216.183594 282.140625 215.453125 282.453125 C 214.722656 282.769531 213.96875 283.011719 213.191406 283.175781 L 137.382812 299.394531 C 136.605469 299.558594 135.816406 299.648438 135.023438 299.660156 C 134.226562 299.671875 133.4375 299.605469 132.65625 299.460938 C 131.875 299.316406 131.113281 299.097656 130.375 298.804688 C 129.636719 298.507812 128.933594 298.144531 128.265625 297.714844 C 127.597656 297.28125 126.980469 296.785156 126.410156 296.230469 C 125.839844 295.675781 125.328125 295.074219 124.875 294.417969 C 124.425781 293.761719 124.042969 293.070312 123.726562 292.339844 C 123.414062 291.605469 123.171875 290.851562 123.007812 290.074219 L 98.476562 175.238281 C 98.308594 174.460938 98.222656 173.671875 98.210938 172.878906 C 98.199219 172.082031 98.265625 171.292969 98.410156 170.511719 C 98.550781 169.726562 98.773438 168.964844 99.066406 168.226562 C 99.359375 167.488281 99.722656 166.785156 100.15625 166.117188 C 100.585938 165.449219 101.082031 164.828125 101.632812 164.257812 C 102.1875 163.6875 102.792969 163.175781 103.449219 162.726562 C 104.101562 162.273438 104.796875 161.890625 105.527344 161.574219 C 106.257812 161.261719 107.011719 161.019531 107.789062 160.851562 Z M 107.789062 160.851562 " fill-opacity="1" fill-rule="nonzero"/><path fill="#fcb335" d="M 137.105469 258.785156 L 129.25 201.542969 C 128.316406 194.71875 135.320312 189.761719 142.378906 192.253906 L 183.84375 206.871094 C 190.90625 209.363281 193.257812 217.617188 188.253906 222.347656 L 146.277344 262.019531 C 143.226562 264.902344 137.675781 262.945312 137.105469 258.785156 Z M 137.105469 258.785156 " fill-opacity="1" fill-rule="nonzero"/><path fill="#622542" d="M 187.511719 218.269531 C 169.992188 208.164062 151.710938 201.476562 132.554688 198.71875 C 128.917969 198.195312 126.480469 194.777344 127.585938 191.636719 L 127.628906 191.515625 C 128.460938 189.15625 131.042969 187.824219 133.769531 188.289062 C 154.726562 191.839844 174.484375 198.804688 193.039062 209.183594 C 195.449219 210.535156 196.628906 213.191406 195.796875 215.550781 L 195.707031 215.8125 C 194.617188 218.90625 190.652344 220.078125 187.511719 218.269531 Z M 187.511719 218.269531 " fill-opacity="1" fill-rule="nonzero"/><path fill="#622542" d="M 148.136719 218.207031 C 148.421875 218.308594 148.695312 218.433594 148.957031 218.582031 C 149.21875 218.730469 149.464844 218.898438 149.695312 219.09375 C 149.921875 219.285156 150.132812 219.492188 150.316406 219.71875 C 150.503906 219.945312 150.667969 220.1875 150.804688 220.4375 C 150.941406 220.691406 151.054688 220.953125 151.136719 221.222656 C 151.21875 221.492188 151.273438 221.765625 151.300781 222.042969 C 151.324219 222.320312 151.320312 222.59375 151.289062 222.867188 C 151.253906 223.136719 151.191406 223.402344 151.101562 223.660156 C 151.011719 223.917969 150.894531 224.164062 150.75 224.394531 C 150.605469 224.628906 150.4375 224.84375 150.242188 225.042969 C 150.050781 225.242188 149.835938 225.421875 149.601562 225.582031 C 149.367188 225.738281 149.117188 225.871094 148.851562 225.984375 C 148.585938 226.09375 148.308594 226.179688 148.023438 226.238281 C 147.734375 226.296875 147.441406 226.332031 147.144531 226.335938 C 146.84375 226.339844 146.546875 226.320312 146.25 226.273438 C 145.953125 226.222656 145.660156 226.148438 145.375 226.046875 C 145.089844 225.949219 144.816406 225.824219 144.550781 225.671875 C 144.289062 225.523438 144.042969 225.355469 143.816406 225.164062 C 143.585938 224.972656 143.378906 224.761719 143.191406 224.535156 C 143.003906 224.308594 142.84375 224.070312 142.703125 223.816406 C 142.566406 223.5625 142.457031 223.300781 142.371094 223.03125 C 142.289062 222.761719 142.234375 222.488281 142.210938 222.210938 C 142.183594 221.933594 142.1875 221.660156 142.222656 221.390625 C 142.253906 221.117188 142.316406 220.851562 142.40625 220.59375 C 142.496094 220.335938 142.617188 220.09375 142.761719 219.859375 C 142.90625 219.625 143.074219 219.410156 143.265625 219.210938 C 143.460938 219.011719 143.671875 218.832031 143.90625 218.675781 C 144.140625 218.515625 144.390625 218.382812 144.65625 218.269531 C 144.921875 218.160156 145.199219 218.074219 145.488281 218.015625 C 145.773438 217.957031 146.066406 217.925781 146.367188 217.917969 C 146.664062 217.914062 146.960938 217.933594 147.261719 217.984375 C 147.558594 218.03125 147.851562 218.105469 148.136719 218.207031 Z M 148.136719 218.207031 " fill-opacity="1" fill-rule="nonzero"/><path fill="#622542" d="M 154.675781 234.351562 C 154.992188 234.460938 155.300781 234.601562 155.59375 234.769531 C 155.886719 234.933594 156.160156 235.125 156.417969 235.339844 C 156.671875 235.554688 156.90625 235.785156 157.113281 236.039062 C 157.324219 236.292969 157.503906 236.5625 157.660156 236.84375 C 157.8125 237.128906 157.9375 237.417969 158.03125 237.722656 C 158.121094 238.023438 158.183594 238.328125 158.210938 238.636719 C 158.242188 238.945312 158.234375 239.253906 158.199219 239.554688 C 158.160156 239.859375 158.09375 240.15625 157.992188 240.445312 C 157.890625 240.730469 157.757812 241.003906 157.597656 241.265625 C 157.433594 241.527344 157.246094 241.765625 157.03125 241.988281 C 156.816406 242.210938 156.578125 242.414062 156.316406 242.589844 C 156.054688 242.765625 155.773438 242.914062 155.476562 243.039062 C 155.179688 243.164062 154.871094 243.257812 154.550781 243.324219 C 154.226562 243.390625 153.902344 243.425781 153.566406 243.433594 C 153.234375 243.441406 152.898438 243.414062 152.566406 243.363281 C 152.234375 243.308594 151.910156 243.222656 151.589844 243.109375 C 151.269531 243 150.964844 242.859375 150.671875 242.691406 C 150.378906 242.527344 150.105469 242.335938 149.847656 242.121094 C 149.59375 241.910156 149.359375 241.675781 149.152344 241.421875 C 148.941406 241.167969 148.761719 240.898438 148.605469 240.617188 C 148.453125 240.332031 148.328125 240.042969 148.234375 239.738281 C 148.144531 239.4375 148.082031 239.132812 148.054688 238.824219 C 148.023438 238.515625 148.027344 238.210938 148.066406 237.90625 C 148.101562 237.601562 148.171875 237.304688 148.273438 237.015625 C 148.375 236.730469 148.507812 236.457031 148.667969 236.195312 C 148.828125 235.9375 149.019531 235.695312 149.234375 235.472656 C 149.449219 235.25 149.6875 235.050781 149.949219 234.871094 C 150.210938 234.695312 150.492188 234.546875 150.789062 234.421875 C 151.085938 234.296875 151.394531 234.203125 151.714844 234.136719 C 152.039062 234.070312 152.363281 234.035156 152.699219 234.027344 C 153.03125 234.023438 153.363281 234.046875 153.699219 234.101562 C 154.03125 234.152344 154.355469 234.238281 154.675781 234.351562 Z M 154.675781 234.351562 " fill-opacity="1" fill-rule="nonzero"/><path fill="#622542" d="M 170.453125 219.195312 C 170.902344 219.355469 171.308594 219.585938 171.667969 219.886719 C 172.03125 220.1875 172.320312 220.539062 172.535156 220.9375 C 172.753906 221.335938 172.882812 221.753906 172.921875 222.191406 C 172.960938 222.625 172.910156 223.046875 172.769531 223.453125 C 172.625 223.859375 172.402344 224.21875 172.097656 224.53125 C 171.792969 224.847656 171.433594 225.089844 171.011719 225.265625 C 170.59375 225.441406 170.148438 225.53125 169.675781 225.542969 C 169.207031 225.550781 168.746094 225.476562 168.296875 225.316406 C 167.847656 225.15625 167.441406 224.925781 167.082031 224.625 C 166.71875 224.324219 166.429688 223.972656 166.210938 223.574219 C 165.996094 223.175781 165.867188 222.757812 165.828125 222.320312 C 165.785156 221.886719 165.835938 221.464844 165.980469 221.058594 C 166.125 220.652344 166.347656 220.292969 166.652344 219.980469 C 166.957031 219.664062 167.316406 219.421875 167.738281 219.246094 C 168.15625 219.070312 168.601562 218.980469 169.070312 218.972656 C 169.542969 218.960938 170.003906 219.035156 170.453125 219.195312 Z M 170.453125 219.195312 " fill-opacity="1" fill-rule="nonzero"/><path fill="#339967" d="M 422.621094 125.507812 L 470.101562 136.363281 C 470.878906 136.539062 471.628906 136.789062 472.355469 137.117188 C 473.078125 137.441406 473.765625 137.832031 474.414062 138.292969 C 475.0625 138.753906 475.660156 139.273438 476.207031 139.851562 C 476.753906 140.429688 477.238281 141.058594 477.660156 141.730469 C 478.082031 142.40625 478.4375 143.113281 478.71875 143.855469 C 479.003906 144.601562 479.210938 145.363281 479.34375 146.148438 C 479.476562 146.933594 479.535156 147.722656 479.511719 148.519531 C 479.488281 149.316406 479.390625 150.101562 479.210938 150.875 L 462.007812 226.242188 C 461.828125 227.019531 461.578125 227.769531 461.253906 228.496094 C 460.929688 229.222656 460.535156 229.910156 460.074219 230.558594 C 459.617188 231.207031 459.097656 231.804688 458.519531 232.351562 C 457.941406 232.898438 457.316406 233.382812 456.640625 233.804688 C 455.96875 234.230469 455.261719 234.582031 454.515625 234.867188 C 453.773438 235.148438 453.011719 235.359375 452.226562 235.492188 C 451.441406 235.625 450.652344 235.679688 449.859375 235.65625 C 449.0625 235.636719 448.277344 235.535156 447.503906 235.359375 L 400.019531 224.503906 C 399.246094 224.324219 398.496094 224.074219 397.769531 223.75 C 397.042969 223.425781 396.355469 223.03125 395.707031 222.570312 C 395.058594 222.109375 394.460938 221.589844 393.914062 221.011719 C 393.371094 220.433594 392.886719 219.808594 392.460938 219.132812 C 392.039062 218.460938 391.6875 217.75 391.402344 217.007812 C 391.117188 216.265625 390.910156 215.5 390.777344 214.714844 C 390.644531 213.933594 390.589844 213.140625 390.613281 212.347656 C 390.632812 211.550781 390.734375 210.765625 390.910156 209.988281 L 408.117188 134.625 C 408.292969 133.847656 408.542969 133.097656 408.867188 132.371094 C 409.195312 131.644531 409.585938 130.957031 410.046875 130.308594 C 410.507812 129.660156 411.027344 129.0625 411.605469 128.515625 C 412.183594 127.96875 412.808594 127.484375 413.480469 127.058594 C 414.15625 126.636719 414.863281 126.28125 415.605469 126 C 416.347656 125.714844 417.113281 125.507812 417.894531 125.375 C 418.679688 125.242188 419.46875 125.1875 420.265625 125.207031 C 421.058594 125.230469 421.84375 125.332031 422.621094 125.507812 Z M 422.621094 125.507812 " fill-opacity="1" fill-rule="nonzero"/><path fill="#ffffff" d="M 438.839844 207.582031 L 417.339844 202.664062 L 421.097656 175.382812 L 447.292969 181.371094 Z M 438.839844 207.582031 " fill-opacity="1" fill-rule="nonzero"/><path fill="#622542" d="M 435.984375 170.535156 C 435.195312 170.355469 434.699219 169.566406 434.878906 168.777344 L 438.925781 151.058594 C 439.105469 150.269531 439.894531 149.773438 440.683594 149.953125 L 448.902344 151.832031 C 449.691406 152.015625 450.1875 152.800781 450.007812 153.59375 C 449.828125 154.382812 449.039062 154.878906 448.25 154.695312 L 441.460938 153.144531 L 437.742188 169.429688 C 437.5625 170.222656 436.773438 170.714844 435.984375 170.535156 Z M 435.984375 170.535156 " fill-opacity="1" fill-rule="nonzero"/><path fill="#fcb335" d="M 437.964844 159.644531 L 438.925781 159.863281 C 445.890625 161.453125 450.253906 168.40625 448.664062 175.375 L 448.65625 175.402344 L 422.457031 169.414062 L 422.464844 169.386719 C 424.054688 162.417969 431 158.050781 437.964844 159.644531 Z M 437.964844 159.644531 " fill-opacity="1" fill-rule="nonzero"/><path fill="#622542" d="M 418.664062 168.546875 L 452.449219 176.269531 L 451.089844 182.238281 L 417.300781 174.511719 Z M 418.664062 168.546875 " fill-opacity="1" fill-rule="nonzero"/><path fill="#339967" d="M 234.925781 343.054688 C 234.925781 343.84375 234.847656 344.625 234.695312 345.398438 C 234.539062 346.171875 234.3125 346.921875 234.011719 347.652344 C 233.710938 348.378906 233.339844 349.070312 232.902344 349.726562 C 232.464844 350.382812 231.96875 350.988281 231.410156 351.546875 C 230.851562 352.105469 230.246094 352.601562 229.589844 353.039062 C 228.9375 353.480469 228.246094 353.847656 227.515625 354.152344 C 226.789062 354.453125 226.039062 354.679688 225.265625 354.835938 C 224.492188 354.988281 223.710938 355.066406 222.921875 355.066406 C 222.136719 355.066406 221.355469 354.988281 220.582031 354.835938 C 219.808594 354.679688 219.058594 354.453125 218.332031 354.152344 C 217.601562 353.847656 216.910156 353.480469 216.253906 353.039062 C 215.601562 352.601562 214.992188 352.105469 214.4375 351.546875 C 213.878906 350.988281 213.382812 350.382812 212.945312 349.726562 C 212.507812 349.070312 212.136719 348.378906 211.835938 347.652344 C 211.535156 346.921875 211.304688 346.171875 211.152344 345.398438 C 211 344.625 210.921875 343.84375 210.921875 343.054688 C 210.921875 342.265625 211 341.484375 211.152344 340.710938 C 211.304688 339.9375 211.535156 339.1875 211.835938 338.457031 C 212.136719 337.730469 212.507812 337.039062 212.945312 336.382812 C 213.382812 335.726562 213.878906 335.121094 214.4375 334.5625 C 214.992188 334.003906 215.601562 333.507812 216.253906 333.070312 C 216.910156 332.628906 217.601562 332.261719 218.332031 331.960938 C 219.058594 331.65625 219.808594 331.429688 220.582031 331.277344 C 221.355469 331.121094 222.136719 331.042969 222.921875 331.042969 C 223.710938 331.042969 224.492188 331.121094 225.265625 331.277344 C 226.039062 331.429688 226.789062 331.65625 227.515625 331.960938 C 228.246094 332.261719 228.9375 332.628906 229.589844 333.070312 C 230.246094 333.507812 230.851562 334.003906 231.410156 334.5625 C 231.96875 335.121094 232.464844 335.726562 232.902344 336.382812 C 233.339844 337.039062 233.710938 337.730469 234.011719 338.457031 C 234.3125 339.1875 234.539062 339.9375 234.695312 340.710938 C 234.847656 341.484375 234.925781 342.265625 234.925781 343.054688 Z M 234.925781 343.054688 " fill-opacity="1" fill-rule="nonzero"/><path fill="#339967" d="M 266.617188 362.539062 C 266.617188 362.996094 266.574219 363.445312 266.484375 363.890625 C 266.398438 364.335938 266.265625 364.769531 266.089844 365.191406 C 265.917969 365.609375 265.703125 366.011719 265.453125 366.386719 C 265.199219 366.765625 264.914062 367.117188 264.589844 367.4375 C 264.269531 367.757812 263.917969 368.046875 263.542969 368.300781 C 263.164062 368.550781 262.765625 368.765625 262.34375 368.941406 C 261.925781 369.113281 261.492188 369.246094 261.046875 369.332031 C 260.601562 369.421875 260.152344 369.46875 259.695312 369.46875 C 259.242188 369.46875 258.792969 369.421875 258.34375 369.332031 C 257.898438 369.246094 257.464844 369.113281 257.046875 368.941406 C 256.625 368.765625 256.226562 368.550781 255.851562 368.300781 C 255.472656 368.046875 255.121094 367.757812 254.800781 367.4375 C 254.480469 367.117188 254.191406 366.765625 253.941406 366.386719 C 253.6875 366.011719 253.472656 365.609375 253.300781 365.191406 C 253.125 364.769531 252.996094 364.335938 252.90625 363.890625 C 252.816406 363.445312 252.773438 362.996094 252.773438 362.539062 C 252.773438 362.085938 252.816406 361.632812 252.90625 361.1875 C 252.996094 360.742188 253.125 360.308594 253.300781 359.886719 C 253.472656 359.46875 253.6875 359.070312 253.941406 358.691406 C 254.191406 358.3125 254.480469 357.960938 254.800781 357.640625 C 255.121094 357.320312 255.472656 357.03125 255.851562 356.777344 C 256.226562 356.527344 256.625 356.3125 257.046875 356.140625 C 257.464844 355.964844 257.898438 355.832031 258.34375 355.746094 C 258.792969 355.65625 259.242188 355.613281 259.695312 355.613281 C 260.152344 355.613281 260.601562 355.65625 261.046875 355.746094 C 261.492188 355.832031 261.925781 355.964844 262.34375 356.140625 C 262.765625 356.3125 263.164062 356.527344 263.542969 356.777344 C 263.917969 357.03125 264.269531 357.320312 264.589844 357.640625 C 264.914062 357.960938 265.199219 358.3125 265.453125 358.691406 C 265.703125 359.070312 265.917969 359.46875 266.089844 359.886719 C 266.265625 360.308594 266.398438 360.742188 266.484375 361.1875 C 266.574219 361.632812 266.617188 362.085938 266.617188 362.539062 Z M 266.617188 362.539062 " fill-opacity="1" fill-rule="nonzero"/><path fill="#339967" d="M 684.105469 171.414062 C 684.105469 172.347656 684.015625 173.273438 683.832031 174.1875 C 683.652344 175.105469 683.382812 175.992188 683.023438 176.855469 C 682.667969 177.71875 682.230469 178.535156 681.710938 179.3125 C 681.195312 180.089844 680.605469 180.808594 679.945312 181.46875 C 679.285156 182.128906 678.570312 182.714844 677.792969 183.234375 C 677.019531 183.753906 676.199219 184.191406 675.335938 184.546875 C 674.476562 184.90625 673.585938 185.175781 672.671875 185.359375 C 671.757812 185.539062 670.832031 185.628906 669.902344 185.628906 C 668.96875 185.628906 668.042969 185.539062 667.128906 185.359375 C 666.214844 185.175781 665.328125 184.90625 664.464844 184.546875 C 663.601562 184.191406 662.785156 183.753906 662.007812 183.234375 C 661.234375 182.714844 660.515625 182.128906 659.855469 181.46875 C 659.195312 180.808594 658.605469 180.089844 658.089844 179.3125 C 657.570312 178.535156 657.132812 177.71875 656.777344 176.855469 C 656.417969 175.992188 656.148438 175.105469 655.96875 174.1875 C 655.785156 173.273438 655.695312 172.347656 655.695312 171.414062 C 655.695312 170.480469 655.785156 169.558594 655.96875 168.640625 C 656.148438 167.726562 656.417969 166.835938 656.777344 165.976562 C 657.132812 165.113281 657.570312 164.292969 658.089844 163.515625 C 658.605469 162.742188 659.195312 162.023438 659.855469 161.363281 C 660.515625 160.703125 661.234375 160.113281 662.007812 159.59375 C 662.785156 159.078125 663.601562 158.640625 664.464844 158.28125 C 665.328125 157.925781 666.214844 157.65625 667.128906 157.472656 C 668.042969 157.289062 668.96875 157.199219 669.902344 157.199219 C 670.832031 157.199219 671.757812 157.289062 672.671875 157.472656 C 673.585938 157.65625 674.476562 157.925781 675.335938 158.28125 C 676.199219 158.640625 677.019531 159.078125 677.792969 159.59375 C 678.570312 160.113281 679.285156 160.703125 679.945312 161.363281 C 680.605469 162.023438 681.195312 162.742188 681.710938 163.515625 C 682.230469 164.292969 682.667969 165.113281 683.023438 165.976562 C 683.382812 166.835938 683.652344 167.726562 683.832031 168.640625 C 684.015625 169.558594 684.105469 170.480469 684.105469 171.414062 Z M 684.105469 171.414062 " fill-opacity="1" fill-rule="nonzero"/></svg>